static_grf.mot
version=1
nRows=12
nColumns 19
inDegrees=yes
endheader
time	1_ground_force_vx	1_ground_force_vy	1_ground_force_vz	1_ground_force_px	1_ground_force_py	1_ground_force_pz	1_ground_torque_x	1_ground_torque_y	1_ground_torque_z	2_ground_force_vx	2_ground_force_vy	2_ground_force_vz	2_ground_force_px	2_ground_force_py	2_ground_force_pz	2_ground_torque_x	2_ground_torque_y	2_ground_torque_z
            0.455000	           -6.107368	          457.162685	          -42.414386	           -0.233160	            0.006013	           -0.356270	           -0.022679	            1.697610	           -0.157500	            1.881481	          470.535998	           46.541195	           -0.260800	            0.005702	           -0.742517	           -0.004449	           -1.112526	           -0.110041
            0.455500	           -5.786368	          456.621919	          -42.417502	           -0.233499	            0.006014	           -0.356674	           -0.021617	            1.705872	           -0.158466	            1.647252	          470.534985	           46.588223	           -0.260532	            0.005703	           -0.742555	           -0.003683	           -1.052000	           -0.104160
            0.456000	           -6.152935	          457.522618	          -42.275163	           -0.233417	            0.006013	           -0.356299	           -0.022545	            1.676434	           -0.154903	            1.974516	          470.720477	           46.541812	           -0.260829	            0.005703	           -0.742713	           -0.004665	           -1.112202	           -0.109967
            0.456500	           -5.739989	          456.801241	          -42.187567	           -0.233614	            0.006012	           -0.356078	           -0.021716	            1.728180	           -0.159605	            2.159984	          471.273073	           46.684488	           -0.260718	            0.005703	           -0.742780	           -0.005040	           -1.099642	           -0.108931
            0.457000	           -5.968943	          456.620508	          -42.096059	           -0.233601	            0.006013	           -0.356275	           -0.022265	            1.703238	           -0.157022	            1.878843	          471.272393	           46.590752	           -0.260716	            0.005703	           -0.742699	           -0.004423	           -1.109453	           -0.109682
            0.457500	           -5.969545	          456.801787	          -42.324562	           -0.233516	            0.006013	           -0.356298	           -0.022329	            1.708645	           -0.158313	            2.163328	          470.352142	           46.728131	           -0.260566	            0.005704	           -0.742763	           -0.005206	           -1.132000	           -0.112461
            0.458000	           -5.923343	          456.080340	          -42.236055	           -0.233394	            0.006013	           -0.356284	           -0.021822	            1.680238	           -0.155601	            1.924926	          471.457540	           46.356748	           -0.260747	            0.005703	           -0.742695	           -0.004526	           -1.108413	           -0.108986
            0.458500	           -5.832079	          455.900848	          -42.420480	           -0.233305	            0.006014	           -0.356547	           -0.021307	            1.665596	           -0.154980	            2.064832	          471.642021	           46.404273	           -0.260727	            0.005704	           -0.742931	           -0.005031	           -1.149126	           -0.113061
            0.459000	           -6.107122	          456.441426	          -42.371626	           -0.233343	            0.006014	           -0.356546	           -0.021563	            1.611612	           -0.149607	            1.880858	          470.719804	           46.635709	           -0.260637	            0.005703	           -0.742712	           -0.004273	           -1.069389	           -0.105948
            0.459500	           -5.877437	          456.981253	          -42.140593	           -0.233513	            0.006013	           -0.356404	           -0.021728	            1.689415	           -0.155790	            1.973187	          471.088758	           46.543127	           -0.260658	            0.005703	           -0.742624	           -0.004430	           -1.057605	           -0.104490
            0.460000	           -5.739875	          456.801045	          -42.141707	           -0.233413	            0.006014	           -0.356567	           -0.021568	            1.716494	           -0.158353	            1.975140	          470.536671	           46.447299	           -0.260565	            0.005703	           -0.742597	           -0.004570	           -1.088679	           -0.107465
            0.460500	           -5.602867	          457.162389	          -42.323926	           -0.233552	            0.006013	           -0.356299	           -0.021642	            1.765879	           -0.163484	            1.785226	          471.271385	           46.778504	           -0.260720	            0.005703	           -0.742699	           -0.004120	           -1.087531	           -0.107949
